Coordinates
version=1
nRows=23
nColumns=30
inDegrees=yes

Units are S.I. units (second, meters, Newtons, ...)
Angles are in degrees.

endheader
time	floatyaw	floatroll	floatpitch	floatx	floaty	floatz	pro_sup_l	deviation_l	flexion_l	cmc_flexion_l	cmc_abduction_l	mp_flexion_l	ip_flexion_l	2mcp_flexion_l	2mcp_abduction_l	2pm_flexion_l	2md_flexion_l	3mcp_flexion_l	3mcp_abduction_l	3pm_flexion_l	3md_flexion_l	4mcp_flexion_l	4mcp_abduction_l	4pm_flexion_l	4md_flexion_l	5mcp_flexion_l	5mcp_abduction_l	5pm_flexion_l	5md_flexion_l
-0.995000	3.029614	-4.103828	101.268469	-0.101603	-0.208394	-0.044658	84.161942	1.501962	0.251675	14.966441	2.477670	-23.273063	-36.195894	39.333550	7.370984	51.110326	33.842531	25.338337	4.722468	48.910121	30.503135	15.381355	-4.433315	61.981145	40.104942	8.995414	-8.895400	60.412619	40.119083
-0.985000	3.029614	-4.103828	101.268469	-0.101604	-0.208416	-0.044653	84.136398	1.492652	0.223422	14.980700	2.414298	-23.269597	-36.190312	39.310933	7.353486	51.070709	33.818983	25.385067	4.724140	48.892138	30.485241	15.412262	-4.448069	61.969147	40.090329	8.970369	-8.851118	60.388403	40.106010
-0.975000	3.029614	-4.103828	101.268469	-0.101610	-0.208449	-0.044658	84.097106	1.479093	0.192973	15.011046	2.354180	-23.252117	-36.176274	39.280573	7.339353	51.038097	33.800960	25.422831	4.730327	48.874705	30.470093	15.443040	-4.460681	61.950733	40.073789	8.963264	-8.823285	60.368694	40.094518
-0.965000	3.029614	-4.103828	101.268469	-0.101621	-0.208489	-0.044671	84.052556	1.463209	0.165690	15.051068	2.299814	-23.226354	-36.156803	39.251039	7.332165	51.018482	33.791691	25.446041	4.738919	48.858710	30.459319	15.470848	-4.468246	61.931087	40.058510	8.975912	-8.816281	60.357058	40.086388
-0.955000	3.029614	-4.103828	101.268469	-0.101635	-0.208528	-0.044687	84.012982	1.447467	0.146229	15.091544	2.249763	-23.200153	-36.136730	39.230327	7.334665	51.011676	33.790574	25.452812	4.747581	48.841050	30.451613	15.492425	-4.469869	61.916671	40.047970	9.007879	-8.830804	60.356472	40.082850
-0.945000	3.029614	-4.103828	101.268469	-0.101644	-0.208559	-0.044698	83.987839	1.435040	0.136777	15.124257	2.202195	-23.179538	-36.120361	39.223706	7.346883	51.012880	33.794091	25.447177	4.754431	48.817462	30.444087	15.505756	-4.466604	61.912474	40.044467	9.056858	-8.863250	60.368207	40.084098
-0.935000	3.029614	-4.103828	101.268469	-0.101643	-0.208576	-0.044700	83.983660	1.430094	0.135752	15.145089	2.158168	-23.165939	-36.109361	39.232915	7.365206	51.016328	33.797997	25.438497	4.758256	48.786451	30.434586	15.511573	-4.460609	61.919077	40.047727	9.117600	-8.905206	60.390356	40.088942
-0.925000	3.029614	-4.103828	101.268469	-0.101627	-0.208577	-0.044695	84.001763	1.436880	0.137469	15.155087	2.122045	-23.156056	-36.102131	39.256493	7.383245	51.018796	33.799588	25.437642	4.758680	48.751707	30.423546	15.513837	-4.454216	61.931947	40.054790	9.180989	-8.944428	60.417879	40.095270
-0.915000	3.029614	-4.103828	101.268469	-0.101596	-0.208573	-0.044689	84.036606	1.457520	0.133458	15.159270	2.098395	-23.144309	-36.095026	39.290493	7.394373	51.020974	33.798822	25.451997	4.756387	48.721168	30.414068	15.518560	-4.449296	61.943951	40.061533	9.235656	-8.968469	60.445091	40.101334
-0.905000	3.029614	-4.103828	101.268469	-0.101555	-0.208575	-0.044690	84.076702	1.490062	0.115716	15.164041	2.087781	-23.126475	-36.084716	39.329111	7.394688	51.026282	33.797885	25.482209	4.752963	48.703222	30.410156	15.531022	-4.446815	61.949317	40.064819	9.272428	-8.969902	60.469145	40.106989
-0.895000	3.029614	-4.103828	101.268469	-0.101515	-0.208597	-0.044704	84.108919	1.528508	0.080873	15.174422	2.085332	-23.102542	-36.070352	39.365449	7.384621	51.038359	33.799768	25.522387	4.750035	48.702712	30.414486	15.552717	-4.446464	61.946166	40.063805	9.288938	-8.950020	60.491610	40.113794
-0.885000	3.029614	-4.103828	101.268469	-0.101483	-0.208642	-0.044732	84.124335	1.565056	0.032975	15.192062	2.083741	-23.077271	-36.054305	39.392772	7.368266	51.058857	33.806738	25.563300	4.748140	48.719186	30.427237	15.580189	-4.446726	61.936097	40.059672	9.290865	-8.918195	60.516515	40.123647
-0.875000	3.029614	-4.103828	101.268469	-0.101464	-0.208698	-0.044768	84.122280	1.593290	-0.017234	15.214516	2.078374	-23.058183	-36.041041	39.406083	7.351024	51.086429	33.819304	25.596624	4.746291	48.747632	30.446232	15.606939	-4.445738	61.921667	40.054188	9.288568	-8.886943	60.546237	40.136943
-0.865000	3.029614	-4.103828	101.268469	-0.101457	-0.208747	-0.044801	84.109995	1.610530	-0.056816	15.236120	2.070322	-23.052049	-36.034829	39.403260	7.337205	51.117105	33.835988	25.618207	4.742749	48.780444	30.467788	15.627253	-4.442544	61.903854	40.048199	9.291244	-8.865652	60.578683	40.151749
-0.855000	3.029614	-4.103828	101.268469	-0.101459	-0.208769	-0.044821	84.097914	1.618187	-0.076711	15.250350	2.065273	-23.061704	-36.037572	39.385140	7.328859	51.145890	33.853997	25.628975	4.736493	48.809593	30.487729	15.639296	-4.437757	61.881211	40.041000	9.302333	-8.856838	60.608080	40.164725
-0.845000	3.029614	-4.103828	101.268469	-0.101465	-0.208760	-0.044826	84.093282	1.620140	-0.075874	15.252677	2.069381	-23.084775	-36.047961	39.354618	7.325946	51.168930	33.870546	25.633327	4.728235	48.828655	30.502466	15.645597	-4.433108	61.851181	40.030979	9.318796	-8.856805	60.628563	40.173046
-0.835000	3.029614	-4.103828	101.268469	-0.101473	-0.208729	-0.044819	84.096077	1.620313	-0.061028	15.242390	2.085092	-23.114930	-36.062281	39.315485	7.327181	51.185107	33.884085	25.636031	4.720243	48.834373	30.510010	15.651157	-4.430396	61.812831	40.017152	9.334123	-8.859561	60.637554	40.175808
-0.825000	3.029614	-4.103828	101.268469	-0.101482	-0.208693	-0.044810	84.099770	1.620929	-0.042438	15.222583	2.109318	-23.144833	-36.076313	39.271666	7.330899	51.196102	33.894722	25.639378	4.715205	48.827250	30.510544	15.660910	-4.430823	61.769373	40.000649	9.342732	-8.860931	60.636608	40.174025
-0.815000	3.029614	-4.103828	101.268469	-0.101490	-0.208670	-0.044808	84.096151	1.622196	-0.028534	15.198859	2.134767	-23.169022	-36.087215	39.226947	7.335610	51.204902	33.903662	25.642136	4.714969	48.810944	30.506255	15.677959	-4.435074	61.728633	39.985106	9.343026	-8.860298	60.629767	40.169560
-0.805000	3.029614	-4.103828	101.268469	-0.101501	-0.208668	-0.044820	84.080635	1.623143	-0.022592	15.177716	2.153548	-23.185273	-36.094495	39.184745	7.340201	51.213659	33.912121	25.640896	4.719805	48.790883	30.500503	15.702827	-4.443561	61.700516	39.975422	9.337603	-8.859356	60.621120	40.163984
-0.795000	3.029614	-4.103828	101.268469	-0.101513	-0.208680	-0.044846	84.054552	1.622887	-0.022875	15.164962	2.160991	-23.194375	-36.099891	39.147669	7.343744	51.222169	33.920389	25.633057	4.728231	48.772740	30.496646	15.733255	-4.456093	61.692418	39.975393	9.330930	-8.859312	60.613039	40.158021
-0.785000	3.029614	-4.103828	101.268469	-0.101528	-0.208697	-0.044878	84.023539	1.621762	-0.025356	15.164066	2.157394	-23.199186	-36.106500	39.117200	7.345110	51.227909	33.927588	25.619609	4.737330	48.760997	30.496833	15.764284	-4.471054	61.705216	39.985570	9.326169	-8.858852	60.605369	40.151472
-0.775000	3.029614	-4.103828	101.268469	-0.101545	-0.208708	-0.044913	83.993846	1.621759	-0.026820	15.174869	2.146427	-23.203558	-36.117560	39.093840	7.342836	51.227693	33.932208	25.605730	4.743533	48.757499	30.501009	15.788835	-4.485012	61.732352	40.002677	9.323306	-8.854701	60.595363	40.143263
